<svg xmlns="http://www.w3.org/2000/svg" viewBox="0 0 131 30" fill="none"> <path d="M37.79775 30H39.75875L44.856 24.827575V8.27585L39.75875 3.10345H11.2918L17.408525 9.31035H37.225L38.73925 10.84685V22.2566L37.225 23.7931H31.681L37.79775 30Z" fill="#0331D6"></path> <path d="M33.72 26.8965H5.097275L0 21.724125V5.172425L5.097275 0H7.214075L13.3308 6.2069H7.6309L6.116725 7.7434V19.15315L7.6309 20.68965H27.60325L33.72 26.8965Z" fill="#0331D6"></path> <path d="M50.97275 6.20695H53.40275V20.172425H50.97275V6.20695Z" fill="#EEEEEE"></path> <path d="M55.03125 9.827575H57.46125V20.172425H55.03125V9.827575Z" fill="#EEEEEE"></path> <path d="M69.6315 9.827575V23.7931H67.2015V18.911625C66.385 19.842675 65.277 20.3082 63.8775 20.3082C62.8665 20.3082 61.9595 20.08835 61.156 19.6487C60.3655 19.20905 59.74325 18.58835 59.28975 17.78665C58.84925 16.984925 58.62875 16.053875 58.62875 14.993525C58.62875 13.946125 58.85575 13.02155 59.30925 12.219825C59.76275 11.4181 60.38475 10.7974 61.1755 10.35775C61.966 9.9181 62.8665 9.698275 63.8775 9.698275C64.59025 9.698275 65.23825 9.821125 65.82125 10.0668C66.4175 10.3125 66.9165 10.681025 67.31825 11.1724V9.827575H69.6315ZM64.1495 18.23275C65.04375 18.23275 65.7825 17.93535 66.36575 17.340525C66.94875 16.7457 67.2405 15.96335 67.2405 14.993525C67.2405 14.0237 66.94875 13.241375 66.36575 12.64655C65.7825 12.051725 65.04375 11.7543 64.1495 11.7543C63.2555 11.7543 62.51675 12.051725 61.9335 12.64655C61.36325 13.241375 61.07825 14.0237 61.07825 14.993525C61.07825 15.96335 61.36325 16.7457 61.9335 17.340525C62.51675 17.93535 63.2555 18.23275 64.1495 18.23275Z" fill="#EEEEEE"></path> <path d="M81.30025 9.827575V20.172425H78.987V18.85345C78.59825 19.318975 78.11225 19.681025 77.529 19.93965C76.94575 20.18535 76.31725 20.3082 75.6435 20.3082C74.25675 20.3082 73.16175 19.926725 72.35825 19.1638C71.56775 18.387925 71.17225 17.243525 71.17225 15.7306V9.827575H73.60225V15.400875C73.60225 16.3319 73.80975 17.030175 74.22425 17.4957C74.652 17.948275 75.2545 18.174575 76.03225 18.174575C76.9005 18.174575 77.58725 17.909475 78.09275 17.3793C78.61125 16.8362 78.87025 16.06035 78.87025 15.051725V9.827575H81.30025Z" fill="#EEEEEE"></path> <path d="M82.92125 9.827575H85.351V20.172425H82.92125V9.827575Z" fill="#EEEEEE"></path> <path d="M97.54075 6.2069V20.172425H95.208V18.83405C94.80625 19.325425 94.30725 19.693975 93.71125 19.93965C93.128 20.18535 92.48 20.3082 91.76725 20.3082C90.76925 20.3082 89.86875 20.08835 89.06525 19.6487C88.27475 19.20905 87.6525 18.58835 87.199 17.78665C86.7455 16.971975 86.51875 16.04095 86.51875 14.993525C86.51875 13.946125 86.7455 13.02155 87.199 12.219825C87.6525 11.4181 88.27475 10.7974 89.06525 10.35775C89.86875 9.9181 90.76925 9.698275 91.76725 9.698275C92.454 9.698275 93.08275 9.81465 93.65275 10.047425C94.223 10.280175 94.709 10.6293 95.11075 11.094825V6.2069H97.54075ZM92.05875 18.23275C92.642 18.23275 93.167 18.10345 93.6335 17.844825C94.1 17.573275 94.46925 17.1918 94.7415 16.700425C95.0135 16.20905 95.14975 15.640075 95.14975 14.993525C95.14975 14.346975 95.0135 13.778025 94.7415 13.286625C94.46925 12.79525 94.1 12.42025 93.6335 12.16165C93.167 11.890075 92.642 11.7543 92.05875 11.7543C91.47575 11.7543 90.95075 11.890075 90.48425 12.16165C90.01775 12.42025 89.6485 12.79525 89.37625 13.286625C89.104 13.778025 88.968 14.346975 88.968 14.993525C88.968 15.640075 89.104 16.20905 89.37625 16.700425C89.6485 17.1918 90.01775 17.573275 90.48425 17.844825C90.95075 18.10345 91.47575 18.23275 92.05875 18.23275Z" fill="#EEEEEE"></path> <path d="M103.75925 6.2069H106.189V20.172425H103.75925V6.2069Z" fill="#EEEEEE"></path> <path d="M118.35925 9.827575V20.172425H116.046V18.83405C115.64425 19.325425 115.14525 19.693975 114.54925 19.93965C113.966 20.18535 113.318 20.3082 112.60525 20.3082C111.5945 20.3082 110.68725 20.08835 109.88375 19.6487C109.09325 19.20905 108.47125 18.58835 108.0175 17.78665C107.577 16.984925 107.35675 16.053875 107.35675 14.993525C107.35675 13.9332 107.577 13.008625 108.0175 12.219825C108.47125 11.4181 109.09325 10.7974 109.88375 10.35775C110.68725 9.9181 111.5945 9.698275 112.60525 9.698275C113.27925 9.698275 113.89475 9.81465 114.452 10.047425C115.02225 10.280175 115.51475 10.62285 115.92925 11.075425V9.827575H118.35925ZM112.8775 18.23275C113.7715 18.23275 114.51025 17.93535 115.0935 17.340525C115.67675 16.7457 115.96825 15.96335 115.96825 14.993525C115.96825 14.0237 115.67675 13.241375 115.0935 12.64655C114.51025 12.051725 113.7715 11.7543 112.8775 11.7543C111.98325 11.7543 111.2445 12.051725 110.66125 12.64655C110.091 13.241375 109.806 14.0237 109.806 14.993525C109.806 15.96335 110.091 16.7457 110.66125 17.340525C111.2445 17.93535 111.98325 18.23275 112.8775 18.23275Z" fill="#EEEEEE"></path> <path d="M125.732 9.698275C126.74275 9.698275 127.6435 9.9181 128.434 10.35775C129.2375 10.7974 129.866 11.4181 130.31975 12.219825C130.77325 13.02155 131 13.946125 131 14.993525C131 16.04095 130.77325 16.971975 130.31975 17.78665C129.866 18.58835 129.2375 19.20905 128.434 19.6487C127.6435 20.08835 126.74275 20.3082 125.732 20.3082C125.01925 20.3082 124.36475 20.18535 123.7685 19.93965C123.1855 19.693975 122.693 19.325425 122.29125 18.83405V20.172425H119.978V6.2069H122.40775V11.075425C122.8225 10.62285 123.3085 10.280175 123.86575 10.047425C124.436 9.81465 125.058 9.698275 125.732 9.698275ZM125.45975 18.23275C126.354 18.23275 127.08625 17.93535 127.6565 17.340525C128.2395 16.7457 128.53125 15.96335 128.53125 14.993525C128.53125 14.0237 128.2395 13.241375 127.6565 12.64655C127.08625 12.051725 126.354 11.7543 125.45975 11.7543C124.87675 11.7543 124.35175 11.890075 123.88525 12.16165C123.41875 12.42025 123.04925 12.79525 122.77725 13.286625C122.505 13.778025 122.369 14.346975 122.369 14.993525C122.369 15.640075 122.505 16.20905 122.77725 16.700425C123.04925 17.1918 123.41875 17.573275 123.88525 17.844825C124.35175 18.10345 124.87675 18.23275 125.45975 18.23275Z" fill="#EEEEEE"></path> <path d="M57.46125 6.2069H55.03125V8.576875H57.46125V6.2069Z" fill="#EEEEEE"></path> <path d="M85.351 6.2069H82.92125V8.576875H85.351V6.2069Z" fill="#EEEEEE"></path> </svg>